<svg width="209" height="29" viewBox="0 0 209 29" fill="none" xmlns="http://www.w3.org/2000/svg">
<path d="M19.4406 18C19.2206 18 18.9906 17.93 18.7706 17.88C18.3251 17.7818 17.8873 17.6515 17.4606 17.49C16.9967 17.3212 16.4867 17.33 16.0289 17.5146C15.5711 17.6992 15.1977 18.0466 14.9806 18.49L14.7606 18.94C13.7866 18.3982 12.8916 17.7252 12.1006 16.94C11.3154 16.149 10.6424 15.254 10.1006 14.28L10.5206 14C10.964 13.7829 11.3114 13.4095 11.496 12.9517C11.6806 12.4938 11.6894 11.9839 11.5206 11.52C11.3618 11.0924 11.2315 10.6548 11.1306 10.21C11.0806 9.98999 11.0406 9.75999 11.0106 9.52999C10.8892 8.82561 10.5202 8.18773 9.97021 7.73123C9.42021 7.27473 8.72529 7.0296 8.01059 7.03999H5.01059C4.57962 7.03594 4.15284 7.1248 3.7593 7.30052C3.36576 7.47624 3.0147 7.73469 2.73002 8.05827C2.44534 8.38186 2.23372 8.76298 2.10958 9.1757C1.98543 9.58842 1.95167 10.023 2.01059 10.45C2.54333 14.6394 4.45662 18.5319 7.44824 21.5126C10.4399 24.4934 14.3393 26.3925 18.5306 26.91H18.9106C19.648 26.9111 20.36 26.6405 20.9106 26.15C21.227 25.867 21.4797 25.5202 21.6521 25.1323C21.8244 24.7444 21.9126 24.3244 21.9106 23.9V20.9C21.8983 20.2054 21.6454 19.5365 21.1949 19.0077C20.7445 18.4788 20.1244 18.1226 19.4406 18ZM19.9406 24C19.9404 24.142 19.91 24.2823 19.8514 24.4116C19.7927 24.5409 19.7073 24.6563 19.6006 24.75C19.4889 24.8465 19.3582 24.9185 19.217 24.9616C19.0758 25.0046 18.9271 25.0177 18.7806 25C15.0355 24.5198 11.5568 22.8065 8.89331 20.1303C6.22978 17.4541 4.533 13.9673 4.07059 10.22C4.05467 10.0735 4.06862 9.92532 4.11159 9.78438C4.15456 9.64344 4.22566 9.51268 4.32059 9.39999C4.4143 9.29332 4.52965 9.20783 4.65897 9.14921C4.78829 9.09058 4.9286 9.06017 5.07059 9.05999H8.07059C8.30314 9.05482 8.53021 9.13087 8.71273 9.27506C8.89525 9.41925 9.0218 9.62256 9.07059 9.84999C9.11059 10.1233 9.16059 10.3933 9.22059 10.66C9.33611 11.1871 9.48985 11.7052 9.68059 12.21L8.28059 12.86C8.16089 12.9149 8.05321 12.9929 7.96375 13.0896C7.87428 13.1862 7.80479 13.2996 7.75926 13.4232C7.71373 13.5468 7.69306 13.6781 7.69844 13.8097C7.70381 13.9413 7.73513 14.0705 7.79059 14.19C9.22979 17.2727 11.7078 19.7508 14.7906 21.19C15.0341 21.29 15.3071 21.29 15.5506 21.19C15.6753 21.1454 15.7899 21.0764 15.8878 20.9872C15.9856 20.8979 16.0648 20.7901 16.1206 20.67L16.7406 19.27C17.2576 19.4549 17.7852 19.6085 18.3206 19.73C18.5873 19.79 18.8573 19.84 19.1306 19.88C19.358 19.9288 19.5613 20.0553 19.7055 20.2378C19.8497 20.4204 19.9258 20.6474 19.9206 20.88L19.9406 24Z" fill="white"/>
<path d="M33.656 14.696V17.096H35.992V18.312H33.656V20.696H32.312V18.312H29.992V17.096H32.312V14.696H33.656ZM40.9721 12.136C42.1028 12.136 42.9615 12.5093 43.5481 13.256C44.1348 13.992 44.4281 15.0053 44.4281 16.296C44.4281 17.7573 44.2308 18.936 43.8361 19.832C43.4415 20.7173 42.8388 21.4267 42.0281 21.96C41.2175 22.4827 40.1188 22.9467 38.7321 23.352L38.3961 22.248C39.8255 21.8427 40.9188 21.2933 41.6761 20.6C42.4441 19.9067 42.8548 18.984 42.9081 17.832C42.6628 18.216 42.3321 18.5253 41.9161 18.76C41.5001 18.9947 41.0308 19.112 40.5081 19.112C39.9535 19.112 39.4521 18.9733 39.0041 18.696C38.5561 18.408 38.1988 18.008 37.9321 17.496C37.6761 16.9733 37.5481 16.3653 37.5481 15.672C37.5481 14.9467 37.7028 14.3173 38.0121 13.784C38.3215 13.2507 38.7321 12.8453 39.2441 12.568C39.7668 12.28 40.3428 12.136 40.9721 12.136ZM40.8121 17.96C41.6548 17.96 42.3641 17.5173 42.9401 16.632C42.9615 15.448 42.8121 14.6 42.4921 14.088C42.1828 13.5653 41.6868 13.304 41.0041 13.304C40.3748 13.304 39.8895 13.512 39.5481 13.928C39.2068 14.344 39.0361 14.936 39.0361 15.704C39.0361 16.4507 39.1961 17.016 39.5161 17.4C39.8361 17.7733 40.2681 17.96 40.8121 17.96ZM49.3784 12.136C50.509 12.136 51.3677 12.5093 51.9544 13.256C52.541 13.992 52.8344 15.0053 52.8344 16.296C52.8344 17.7573 52.637 18.936 52.2424 19.832C51.8477 20.7173 51.245 21.4267 50.4344 21.96C49.6237 22.4827 48.525 22.9467 47.1384 23.352L46.8024 22.248C48.2317 21.8427 49.325 21.2933 50.0824 20.6C50.8504 19.9067 51.261 18.984 51.3144 17.832C51.069 18.216 50.7384 18.5253 50.3224 18.76C49.9064 18.9947 49.437 19.112 48.9144 19.112C48.3597 19.112 47.8584 18.9733 47.4104 18.696C46.9624 18.408 46.605 18.008 46.3384 17.496C46.0824 16.9733 45.9544 16.3653 45.9544 15.672C45.9544 14.9467 46.109 14.3173 46.4184 13.784C46.7277 13.2507 47.1384 12.8453 47.6504 12.568C48.173 12.28 48.749 12.136 49.3784 12.136ZM49.2184 17.96C50.061 17.96 50.7704 17.5173 51.3464 16.632C51.3677 15.448 51.2184 14.6 50.8984 14.088C50.589 13.5653 50.093 13.304 49.4104 13.304C48.781 13.304 48.2957 13.512 47.9544 13.928C47.613 14.344 47.4424 14.936 47.4424 15.704C47.4424 16.4507 47.6024 17.016 47.9224 17.4C48.2424 17.7733 48.6744 17.96 49.2184 17.96ZM59.4806 17.256C60.9846 17.864 61.7366 18.824 61.7366 20.136C61.7366 20.7227 61.5766 21.2507 61.2566 21.72C60.9473 22.1787 60.51 22.5413 59.9446 22.808C59.3793 23.064 58.7393 23.192 58.0246 23.192C57.2993 23.192 56.6593 23.064 56.1046 22.808C55.55 22.552 55.118 22.1947 54.8086 21.736C54.51 21.2773 54.3606 20.7547 54.3606 20.168C54.3606 19.5067 54.5366 18.952 54.8886 18.504C55.2513 18.056 55.7793 17.6827 56.4726 17.384C55.9073 17.096 55.486 16.7493 55.2086 16.344C54.942 15.928 54.8086 15.4427 54.8086 14.888C54.8086 14.312 54.958 13.816 55.2566 13.4C55.566 12.984 55.966 12.6693 56.4566 12.456C56.958 12.2427 57.4913 12.136 58.0566 12.136C58.6113 12.136 59.134 12.2373 59.6246 12.44C60.126 12.6427 60.5313 12.952 60.8406 13.368C61.15 13.7733 61.3046 14.264 61.3046 14.84C61.3046 15.3733 61.1553 15.832 60.8566 16.216C60.558 16.6 60.0993 16.9467 59.4806 17.256ZM58.0566 13.24C57.502 13.24 57.0593 13.384 56.7286 13.672C56.4086 13.96 56.2486 14.3707 56.2486 14.904C56.2486 15.416 56.4033 15.8053 56.7126 16.072C57.0326 16.3387 57.5393 16.584 58.2326 16.808L58.5046 16.904C58.9846 16.6267 59.3313 16.3333 59.5446 16.024C59.758 15.7147 59.8646 15.336 59.8646 14.888C59.8646 14.3867 59.7046 13.9867 59.3846 13.688C59.0753 13.3893 58.6326 13.24 58.0566 13.24ZM58.0406 22.024C58.702 22.024 59.2246 21.8533 59.6086 21.512C60.0033 21.1707 60.2006 20.7173 60.2006 20.152C60.2006 19.768 60.126 19.448 59.9766 19.192C59.8273 18.9253 59.5873 18.696 59.2566 18.504C58.926 18.3013 58.462 18.0987 57.8646 17.896L57.4646 17.752C56.9313 18.008 56.5366 18.3333 56.2806 18.728C56.0246 19.112 55.8966 19.592 55.8966 20.168C55.8966 20.7547 56.0886 21.2133 56.4726 21.544C56.8566 21.864 57.3793 22.024 58.0406 22.024ZM71.2315 10.12C70.6768 10.9413 70.2342 11.6773 69.9035 12.328C69.5835 12.968 69.3275 13.6987 69.1355 14.52C68.9542 15.3413 68.8635 16.3013 68.8635 17.4C68.8635 18.488 68.9542 19.4427 69.1355 20.264C69.3275 21.0853 69.5835 21.8267 69.9035 22.488C70.2342 23.1387 70.6768 23.8693 71.2315 24.68L70.3035 25.32C69.5995 24.3173 69.0555 23.496 68.6715 22.856C68.2982 22.2053 67.9782 21.432 67.7115 20.536C67.4555 19.6293 67.3275 18.584 67.3275 17.4C67.3275 16.216 67.4555 15.176 67.7115 14.28C67.9782 13.3733 68.2982 12.6 68.6715 11.96C69.0555 11.3093 69.5995 10.4827 70.3035 9.48L71.2315 10.12ZM76.019 12.136C77.1497 12.136 78.0083 12.5093 78.595 13.256C79.1817 13.992 79.475 15.0053 79.475 16.296C79.475 17.7573 79.2777 18.936 78.883 19.832C78.4883 20.7173 77.8857 21.4267 77.075 21.96C76.2643 22.4827 75.1657 22.9467 73.779 23.352L73.443 22.248C74.8723 21.8427 75.9657 21.2933 76.723 20.6C77.491 19.9067 77.9017 18.984 77.955 17.832C77.7097 18.216 77.379 18.5253 76.963 18.76C76.547 18.9947 76.0777 19.112 75.555 19.112C75.0003 19.112 74.499 18.9733 74.051 18.696C73.603 18.408 73.2457 18.008 72.979 17.496C72.723 16.9733 72.595 16.3653 72.595 15.672C72.595 14.9467 72.7497 14.3173 73.059 13.784C73.3683 13.2507 73.779 12.8453 74.291 12.568C74.8137 12.28 75.3897 12.136 76.019 12.136ZM75.859 17.96C76.7017 17.96 77.411 17.5173 77.987 16.632C78.0083 15.448 77.859 14.6 77.539 14.088C77.2297 13.5653 76.7337 13.304 76.051 13.304C75.4217 13.304 74.9363 13.512 74.595 13.928C74.2537 14.344 74.083 14.936 74.083 15.704C74.083 16.4507 74.243 17.016 74.563 17.4C74.883 17.7733 75.315 17.96 75.859 17.96ZM84.7453 12.136C85.9293 12.136 86.8199 12.6107 87.4173 13.56C88.0253 14.4987 88.3293 15.864 88.3293 17.656C88.3293 19.448 88.0253 20.8187 87.4173 21.768C86.8199 22.7173 85.9293 23.192 84.7453 23.192C83.5613 23.192 82.6653 22.7173 82.0573 21.768C81.4599 20.8187 81.1613 19.448 81.1613 17.656C81.1613 15.864 81.4599 14.4987 82.0573 13.56C82.6653 12.6107 83.5613 12.136 84.7453 12.136ZM84.7453 13.304C84.0519 13.304 83.5346 13.6453 83.1933 14.328C82.8626 15.0107 82.6973 16.12 82.6973 17.656C82.6973 19.192 82.8626 20.3067 83.1933 21C83.5346 21.6827 84.0519 22.024 84.7453 22.024C85.4279 22.024 85.9399 21.6827 86.2813 21C86.6226 20.3067 86.7933 19.192 86.7933 17.656C86.7933 16.1307 86.6226 15.0267 86.2813 14.344C85.9399 13.6507 85.4279 13.304 84.7453 13.304ZM90.7711 9.48C91.4751 10.4827 92.0138 11.3093 92.3871 11.96C92.7711 12.6 93.0911 13.3733 93.3471 14.28C93.6138 15.176 93.7471 16.216 93.7471 17.4C93.7471 18.584 93.6138 19.6293 93.3471 20.536C93.0911 21.432 92.7711 22.2053 92.3871 22.856C92.0138 23.496 91.4751 24.3173 90.7711 25.32L89.8431 24.68C90.3978 23.8693 90.8351 23.1387 91.1551 22.488C91.4858 21.8267 91.7418 21.0853 91.9231 20.264C92.1151 19.4427 92.2111 18.488 92.2111 17.4C92.2111 16.3013 92.1151 15.3413 91.9231 14.52C91.7418 13.6987 91.4858 12.968 91.1551 12.328C90.8351 11.6773 90.3978 10.9413 89.8431 10.12L90.7711 9.48ZM109.161 9.128H103.113V13.136C103.913 12.736 104.729 12.536 105.561 12.536C106.457 12.536 107.257 12.744 107.961 13.16C108.665 13.576 109.209 14.176 109.593 14.96C109.993 15.744 110.193 16.672 110.193 17.744C110.193 18.848 109.945 19.824 109.449 20.672C108.953 21.52 108.249 22.184 107.337 22.664C106.425 23.128 105.369 23.36 104.169 23.36C103.097 23.36 102.145 23.168 101.313 22.784C100.497 22.384 99.753 21.816 99.081 21.08L100.833 19.448C101.761 20.472 102.849 20.984 104.097 20.984C105.009 20.984 105.721 20.704 106.233 20.144C106.761 19.584 107.025 18.784 107.025 17.744C107.025 15.744 106.161 14.744 104.433 14.744C104.065 14.744 103.721 14.792 103.401 14.888C103.081 14.968 102.729 15.104 102.345 15.296H100.161V6.848H109.521L109.161 9.128ZM118.966 12.248C119.814 12.248 120.582 12.456 121.27 12.872C121.974 13.272 122.526 13.872 122.926 14.672C123.326 15.456 123.526 16.4 123.526 17.504C123.526 18.624 123.294 19.632 122.83 20.528C122.366 21.408 121.71 22.104 120.862 22.616C120.03 23.112 119.078 23.36 118.006 23.36C116.022 23.36 114.55 22.664 113.59 21.272C112.646 19.88 112.174 17.968 112.174 15.536C112.174 13.744 112.438 12.176 112.966 10.832C113.51 9.472 114.278 8.424 115.27 7.688C116.278 6.936 117.454 6.56 118.798 6.56C120.126 6.56 121.302 6.904 122.326 7.592L121.174 9.488C120.438 9.056 119.662 8.84 118.846 8.84C117.822 8.84 116.998 9.304 116.374 10.232C115.766 11.144 115.422 12.408 115.342 14.024C116.318 12.84 117.526 12.248 118.966 12.248ZM118.006 21.08C118.806 21.08 119.406 20.768 119.806 20.144C120.222 19.504 120.43 18.64 120.43 17.552C120.43 16.448 120.238 15.664 119.854 15.2C119.486 14.72 118.942 14.48 118.222 14.48C117.678 14.48 117.158 14.632 116.662 14.936C116.182 15.224 115.75 15.624 115.366 16.136C115.398 17.88 115.614 19.144 116.014 19.928C116.43 20.696 117.094 21.08 118.006 21.08ZM134.708 9.128H128.66V13.136C129.46 12.736 130.276 12.536 131.108 12.536C132.004 12.536 132.804 12.744 133.508 13.16C134.212 13.576 134.756 14.176 135.14 14.96C135.54 15.744 135.74 16.672 135.74 17.744C135.74 18.848 135.492 19.824 134.996 20.672C134.5 21.52 133.796 22.184 132.884 22.664C131.972 23.128 130.916 23.36 129.716 23.36C128.644 23.36 127.692 23.168 126.86 22.784C126.044 22.384 125.3 21.816 124.628 21.08L126.38 19.448C127.308 20.472 128.396 20.984 129.644 20.984C130.556 20.984 131.268 20.704 131.78 20.144C132.308 19.584 132.572 18.784 132.572 17.744C132.572 15.744 131.708 14.744 129.98 14.744C129.612 14.744 129.268 14.792 128.948 14.888C128.628 14.968 128.276 15.104 127.892 15.296H125.708V6.848H135.068L134.708 9.128ZM137.889 16.712V14.264H145.137V16.712H137.889ZM155.799 14.336C158.007 15.328 159.111 16.768 159.111 18.656C159.111 19.536 158.863 20.336 158.367 21.056C157.871 21.76 157.167 22.32 156.255 22.736C155.359 23.152 154.311 23.36 153.111 23.36C151.927 23.36 150.895 23.16 150.015 22.76C149.135 22.344 148.455 21.784 147.975 21.08C147.495 20.376 147.255 19.584 147.255 18.704C147.255 16.848 148.279 15.488 150.327 14.624C148.711 13.744 147.903 12.472 147.903 10.808C147.903 9.96 148.135 9.216 148.599 8.576C149.079 7.92 149.719 7.424 150.519 7.088C151.335 6.736 152.223 6.56 153.183 6.56C154.159 6.56 155.047 6.72 155.847 7.04C156.647 7.36 157.279 7.832 157.743 8.456C158.223 9.08 158.463 9.824 158.463 10.688C158.463 12.208 157.575 13.424 155.799 14.336ZM153.183 8.72C152.463 8.72 151.895 8.904 151.479 9.272C151.079 9.64 150.879 10.168 150.879 10.856C150.879 11.496 151.071 12.008 151.455 12.392C151.839 12.76 152.455 13.096 153.303 13.4L153.759 13.568C154.383 13.184 154.823 12.784 155.079 12.368C155.351 11.936 155.487 11.424 155.487 10.832C155.487 10.176 155.287 9.664 154.887 9.296C154.487 8.912 153.919 8.72 153.183 8.72ZM153.183 21.08C154.063 21.08 154.751 20.856 155.247 20.408C155.743 19.96 155.991 19.376 155.991 18.656C155.991 17.92 155.775 17.344 155.343 16.928C154.911 16.496 154.143 16.08 153.039 15.68L152.295 15.416C150.999 16.104 150.351 17.168 150.351 18.608C150.351 19.376 150.607 19.984 151.119 20.432C151.631 20.864 152.319 21.08 153.183 21.08ZM170.52 9.128H164.472V13.136C165.272 12.736 166.088 12.536 166.92 12.536C167.816 12.536 168.616 12.744 169.32 13.16C170.024 13.576 170.568 14.176 170.952 14.96C171.352 15.744 171.552 16.672 171.552 17.744C171.552 18.848 171.304 19.824 170.808 20.672C170.312 21.52 169.608 22.184 168.696 22.664C167.784 23.128 166.728 23.36 165.528 23.36C164.456 23.36 163.504 23.168 162.672 22.784C161.856 22.384 161.112 21.816 160.44 21.08L162.192 19.448C163.12 20.472 164.208 20.984 165.456 20.984C166.368 20.984 167.08 20.704 167.592 20.144C168.12 19.584 168.384 18.784 168.384 17.744C168.384 15.744 167.52 14.744 165.792 14.744C165.424 14.744 165.08 14.792 164.76 14.888C164.44 14.968 164.088 15.104 163.704 15.296H161.52V6.848H170.88L170.52 9.128ZM173.701 16.712V14.264H180.949V16.712H173.701ZM191.612 14.336C193.82 15.328 194.924 16.768 194.924 18.656C194.924 19.536 194.676 20.336 194.18 21.056C193.684 21.76 192.98 22.32 192.068 22.736C191.172 23.152 190.124 23.36 188.924 23.36C187.74 23.36 186.708 23.16 185.828 22.76C184.948 22.344 184.268 21.784 183.788 21.08C183.308 20.376 183.068 19.584 183.068 18.704C183.068 16.848 184.092 15.488 186.14 14.624C184.524 13.744 183.716 12.472 183.716 10.808C183.716 9.96 183.948 9.216 184.412 8.576C184.892 7.92 185.532 7.424 186.332 7.088C187.148 6.736 188.036 6.56 188.996 6.56C189.972 6.56 190.86 6.72 191.66 7.04C192.46 7.36 193.092 7.832 193.556 8.456C194.036 9.08 194.276 9.824 194.276 10.688C194.276 12.208 193.388 13.424 191.612 14.336ZM188.996 8.72C188.276 8.72 187.708 8.904 187.292 9.272C186.892 9.64 186.692 10.168 186.692 10.856C186.692 11.496 186.884 12.008 187.268 12.392C187.652 12.76 188.268 13.096 189.116 13.4L189.572 13.568C190.196 13.184 190.636 12.784 190.892 12.368C191.164 11.936 191.3 11.424 191.3 10.832C191.3 10.176 191.1 9.664 190.7 9.296C190.3 8.912 189.732 8.72 188.996 8.72ZM188.996 21.08C189.876 21.08 190.564 20.856 191.06 20.408C191.556 19.96 191.804 19.376 191.804 18.656C191.804 17.92 191.588 17.344 191.156 16.928C190.724 16.496 189.956 16.08 188.852 15.68L188.108 15.416C186.812 16.104 186.164 17.168 186.164 18.608C186.164 19.376 186.42 19.984 186.932 20.432C187.444 20.864 188.132 21.08 188.996 21.08ZM206.333 9.128H200.285V13.136C201.085 12.736 201.901 12.536 202.733 12.536C203.629 12.536 204.429 12.744 205.133 13.16C205.837 13.576 206.381 14.176 206.765 14.96C207.165 15.744 207.365 16.672 207.365 17.744C207.365 18.848 207.117 19.824 206.621 20.672C206.125 21.52 205.421 22.184 204.509 22.664C203.597 23.128 202.541 23.36 201.341 23.36C200.269 23.36 199.317 23.168 198.485 22.784C197.669 22.384 196.925 21.816 196.253 21.08L198.005 19.448C198.933 20.472 200.021 20.984 201.269 20.984C202.181 20.984 202.893 20.704 203.405 20.144C203.933 19.584 204.197 18.784 204.197 17.744C204.197 15.744 203.333 14.744 201.605 14.744C201.237 14.744 200.893 14.792 200.573 14.888C200.253 14.968 199.901 15.104 199.517 15.296H197.333V6.848H206.693L206.333 9.128Z" fill="white"/>
</svg>
